<svg width="16" height="16" viewBox="0 0 16 16" fill="none" xmlns="http://www.w3.org/2000/svg">
	<g clip-path="url(#clip0)">
		<path d="M14.5276 2.00842H1.47241C0.660531 2.00842 0 2.66892 0 3.48183C0 4.2937 0.660531 4.95424 1.47241 4.95424H14.5276C15.3395 4.95424 16 4.2937 16 3.48183C16 2.66892 15.3395 2.00842 14.5276 2.00842Z" fill="#20161F"/>
		<path d="M14.5276 6.5271H1.47241C0.660531 6.5271 0 7.1876 0 8.00051C0 8.81238 0.660531 9.47291 1.47241 9.47291H14.5276C15.3395 9.47291 16 8.81238 16 8.00051C16 7.1876 15.3395 6.5271 14.5276 6.5271Z" fill="#20161F"/>
		<path d="M14.5276 11.0458H1.47241C0.660531 11.0458 0 11.7063 0 12.5192C0 13.3311 0.660531 13.9916 1.47241 13.9916H14.5276C15.3395 13.9916 16 13.3311 16 12.5192C16 11.7063 15.3395 11.0458 14.5276 11.0458Z" fill="#20161F"/>
	</g>
	<defs>
		<clipPath id="clip0">
			<rect width="16" height="16" fill="white"/>
		</clipPath>
	</defs>
</svg>
