<svg width="16" height="20" viewBox="0 0 16 20" fill="none" xmlns="http://www.w3.org/2000/svg">
	<path d="M15.3327 10C15.3327 8.98896 14.5104 8.16671 13.4993 8.16671H12.5827V5.41671C12.5827 2.88946 10.5266 0.833374 7.99935 0.833374C5.4721 0.833374 3.41602 2.88946 3.41602 5.41671V8.16671H2.49935C1.48827 8.16671 0.666016 8.98896 0.666016 10V17.3334C0.666016 18.3445 1.48827 19.1667 2.49935 19.1667H13.4993C14.5104 19.1667 15.3327 18.3445 15.3327 17.3334V10ZM5.24935 5.41671C5.24935 3.90054 6.48318 2.66671 7.99935 2.66671C9.51551 2.66671 10.7493 3.90054 10.7493 5.41671V8.16671H5.24935V5.41671Z"/>
</svg>
