<svg width="13" height="13" viewBox="0 0 13 13" fill="none" xmlns="http://www.w3.org/2000/svg">
	<path d="M0.94666 12.7194C0.854167 12.7193 0.762719 12.6999 0.678131 12.6625C0.593543 12.625 0.517667 12.5704 0.455326 12.5021C0.391859 12.4344 0.343429 12.354 0.313212 12.2662C0.282996 12.1784 0.271675 12.0852 0.279993 11.9928L0.443326 10.1968L7.98866 2.6541L10.3467 5.01143L2.80333 12.5534L1.00733 12.7168C0.987159 12.7186 0.966913 12.7195 0.94666 12.7194ZM10.8173 4.5401L8.45999 2.18277L9.87399 0.768767C9.93591 0.706782 10.0094 0.65761 10.0904 0.62406C10.1713 0.590511 10.258 0.573242 10.3457 0.573242C10.4333 0.573242 10.52 0.590511 10.601 0.62406C10.6819 0.65761 10.7554 0.706782 10.8173 0.768767L12.2313 2.18277C12.2933 2.24468 12.3425 2.31821 12.376 2.39914C12.4096 2.48007 12.4269 2.56682 12.4269 2.65443C12.4269 2.74204 12.4096 2.82879 12.376 2.90973C12.3425 2.99066 12.2933 3.06418 12.2313 3.1261L10.818 4.53943L10.8173 4.5401Z" fill="#FF5400"/>
</svg>
