<svg width="24" height="24" viewBox="0 0 24 24" fill="none" xmlns="http://www.w3.org/2000/svg">
	<path d="M21.1304 5.73915H18.6261L17.2435 3.6522C16.7217 2.86959 15.8087 2.40002 14.8696 2.40002H9.13043C8.1913 2.40002 7.27826 2.86959 6.75652 3.6522L5.37391 5.73915H2.86957C1.27826 5.73915 0 7.01742 0 8.60872V18.7305C0 20.3218 1.27826 21.6 2.86957 21.6H21.1304C22.7217 21.6 24 20.3218 24 18.7305V8.60872C24 7.01742 22.7217 5.73915 21.1304 5.73915ZM12 19.2522C8.42609 19.2522 5.53043 16.3565 5.53043 12.7826C5.53043 9.20872 8.42609 6.33915 12 6.33915C15.5739 6.33915 18.4696 9.23481 18.4696 12.8087C18.4696 16.3565 15.5739 19.2522 12 19.2522ZM20.7652 9.78263C20.7391 9.78263 20.713 9.78263 20.6609 9.78263H19.6174C19.1478 9.75655 18.7826 9.36524 18.8087 8.89568C18.8348 8.4522 19.1739 8.11307 19.6174 8.08698H20.6609C21.1304 8.06089 21.5217 8.42611 21.5478 8.89568C21.5739 9.36524 21.2348 9.75655 20.7652 9.78263Z" fill="#777777"/>
	<path d="M12.0004 9.20886C10.0178 9.20886 8.40039 10.8263 8.40039 12.8089C8.40039 14.7915 10.0178 16.3828 12.0004 16.3828C13.983 16.3828 15.6004 14.7654 15.6004 12.7828C15.6004 10.8002 13.983 9.20886 12.0004 9.20886Z" fill="#777777"/>
</svg>
