<svg width="150" height="150" viewBox="0 0 150 150" fill="none" xmlns="http://www.w3.org/2000/svg">
	<path d="M133.695 3.26097H16.3042C7.31739 3.26097 0 10.5784 0 19.5652V91.3044C0 100.291 7.31739 107.609 16.3042 107.609H29.3478C31.1478 107.609 32.6088 106.148 32.6088 104.348C32.6088 102.548 31.1478 101.087 29.3478 101.087H16.3042C10.9107 101.087 6.52163 96.6977 6.52163 91.3041V19.5652C6.52163 14.1716 10.9107 9.7826 16.3042 9.7826H133.695C139.089 9.7826 143.478 14.1716 143.478 19.5652V91.3044C143.478 96.698 139.089 101.087 133.695 101.087H120.652C118.852 101.087 117.391 102.548 117.391 104.348C117.391 106.148 118.852 107.609 120.652 107.609H133.695C142.682 107.609 150 100.292 150 91.3047V19.5652C150 10.5784 142.683 3.26097 133.695 3.26097Z" fill="#D7D7D7"/>
	<path d="M136.344 17.6542C135.287 16.1933 133.252 15.8607 131.791 16.9239L81.1174 53.5173C77.4065 56.1977 72.6002 56.1977 68.8892 53.5173L18.2153 16.9239C16.7479 15.861 14.7131 16.1936 13.663 17.6542C12.6065 19.1152 12.9327 21.1564 14.3934 22.2065L65.0672 58.7999C68.0347 60.9456 71.5173 62.0217 74.9999 62.0217C78.4826 62.0217 81.9652 60.952 84.9391 58.7999L135.613 22.2065C137.068 21.1564 137.4 19.1152 136.344 17.6542Z" fill="#D7D7D7"/>
	<path d="M51.2165 56.3933C49.9448 55.1215 47.8773 55.1215 46.6055 56.3933L13.9968 89.0021C12.725 90.2738 12.725 92.3413 13.9968 93.613C14.636 94.2455 15.4706 94.5653 16.3055 94.5653C17.1404 94.5653 17.9749 94.2458 18.6077 93.613L51.2165 61.0043C52.4883 59.7325 52.4883 57.665 51.2165 56.3933Z" fill="#D7D7D7"/>
	<path d="M135.998 89.0021L103.389 56.3933C102.117 55.1215 100.05 55.1215 98.778 56.3933C97.5063 57.665 97.5063 59.7325 98.778 61.0043L131.387 93.613C132.026 94.2455 132.861 94.5653 133.695 94.5653C134.53 94.5653 135.365 94.2458 135.998 93.613C137.269 92.3413 137.269 90.2738 135.998 89.0021Z" fill="#D7D7D7"/>
	<path d="M74.9983 74.9998C55.2179 74.9998 39.1289 91.0891 39.1289 110.87C39.1289 130.65 55.2179 146.739 74.9983 146.739C84.3637 146.739 93.22 143.159 99.9376 136.65C101.235 135.398 101.268 133.33 100.016 132.039C98.7636 130.741 96.7029 130.722 95.4048 131.961C89.907 137.289 82.6548 140.217 74.9983 140.217C58.8179 140.217 45.6505 127.05 45.6505 110.869C45.6505 94.6888 58.8179 81.5215 74.9983 81.5215C91.1788 81.5215 104.346 94.6888 104.346 110.869C104.346 112.669 105.807 114.13 107.607 114.13C109.407 114.13 110.868 112.669 110.868 110.869C110.868 91.0891 94.7788 74.9998 74.9983 74.9998Z" fill="#D7D7D7"/>
	<path d="M74.9995 94.5651C66.0127 94.5651 58.6953 101.882 58.6953 110.869C58.6953 119.856 66.0127 127.174 74.9995 127.174C83.9864 127.174 91.3038 119.856 91.3038 110.87C91.3038 101.883 83.9867 94.5651 74.9995 94.5651ZM74.9995 120.652C69.606 120.652 65.2169 116.263 65.2169 110.87C65.2169 105.476 69.606 101.087 74.9995 101.087C80.3931 101.087 84.7822 105.476 84.7822 110.87C84.7822 116.263 80.3931 120.652 74.9995 120.652Z" fill="#D7D7D7"/>
	<path d="M107.607 107.609C105.807 107.609 104.346 109.069 104.346 110.869C104.346 118.187 102.703 120.652 97.8248 120.652C93.4945 120.652 91.3032 117.359 91.3032 110.869C91.3032 109.069 89.8422 107.609 88.0422 107.609C86.2422 107.609 84.7813 109.069 84.7813 110.869C84.7812 121.076 89.6597 127.174 97.8248 127.174C110.868 127.174 110.868 114.9 110.868 110.869C110.868 109.069 109.407 107.609 107.607 107.609Z" fill="#D7D7D7"/>
</svg>
