<svg width="12" height="12" viewBox="0 0 12 12" fill="none" xmlns="http://www.w3.org/2000/svg">
	<path d="M6.65696e-05 4.49146C-0.00158714 4.59281 0.0276048 4.69228 0.0837718 4.77666C0.139939 4.86104 0.220428 4.92636 0.314567 4.96396L5.11507 6.88446L7.03557 11.6855C7.07267 11.7783 7.13676 11.8579 7.21956 11.914C7.30236 11.97 7.40007 12 7.50007 12H7.50807C7.60933 11.9984 7.70773 11.9661 7.79023 11.9073C7.87273 11.8486 7.93544 11.7661 7.97007 11.671L11.9701 0.670958C12.0028 0.581471 12.0093 0.484491 11.9888 0.391438C11.9682 0.298386 11.9216 0.213136 11.8542 0.14573C11.7869 0.078324 11.7016 0.0315678 11.6086 0.0109684C11.5156 -0.00963097 11.4186 -0.00321572 11.3291 0.0294585L0.329067 4.02946C0.233849 4.06417 0.151415 4.12698 0.0926681 4.20956C0.0339212 4.29215 0.00163016 4.39062 6.65696e-05 4.49196V4.49146Z"/>
</svg>
