<svg width="24" height="24" viewBox="0 0 24 24" fill="none" xmlns="http://www.w3.org/2000/svg">
	<path d="M14.1829 8.18176H10.9102V11.4545H14.1829C15.0852 11.4545 15.8192 10.7204 15.8192 9.81813C15.8192 8.91585 15.0852 8.18176 14.1829 8.18176Z" fill="#FF5400"/>
	<path d="M12.0001 0C5.3837 0 0 5.3837 0 12.0001C0 18.6164 5.3837 23.9999 12.0001 23.9999C18.6164 23.9999 23.9999 18.6164 23.9999 12.0001C23.9999 5.3837 18.6164 0 12.0001 0V0ZM14.1818 13.0909H10.909V14.1818H13.3636C13.8152 14.1818 14.1818 14.5483 14.1818 14.9999C14.1818 15.4516 13.8152 15.8181 13.3636 15.8181H10.909V16.6363C10.909 17.0879 10.5425 17.4545 10.0908 17.4545C9.6392 17.4545 9.27266 17.0879 9.27266 16.6363V15.8181H7.36364C6.912 15.8181 6.54545 15.4516 6.54545 14.9999C6.54545 14.5483 6.912 14.1818 7.36364 14.1818H9.27266V7.36364C9.27266 6.912 9.6392 6.54545 10.0908 6.54545H14.1818C15.9861 6.54545 17.4545 8.01383 17.4545 9.81818C17.4545 11.6225 15.9861 13.0909 14.1818 13.0909Z" fill="#FF5400"/>
</svg>
