<svg width="16" height="13" viewBox="0 0 16 13" fill="none" xmlns="http://www.w3.org/2000/svg">
	<path d="M14.9079 4.51721L10.4008 3.94064L8.38608 0.345331C8.33105 0.246893 8.24052 0.167205 8.12869 0.118768C7.84822 -0.00310701 7.50739 0.0984555 7.36716 0.345331L5.3524 3.94064L0.845375 4.51721C0.721116 4.53283 0.607509 4.58439 0.520528 4.66252C0.415373 4.75765 0.357428 4.88564 0.359425 5.01836C0.361422 5.15109 0.423198 5.27768 0.531179 5.37033L3.79207 8.16877L3.02167 12.1203C3.0036 12.2123 3.01516 12.3068 3.05503 12.3932C3.0949 12.4797 3.16148 12.5545 3.24723 12.6094C3.33298 12.6642 3.43447 12.6968 3.54018 12.7034C3.64589 12.71 3.7516 12.6904 3.84532 12.6469L7.87662 10.7813L11.9079 12.6469C12.018 12.6985 12.1458 12.7156 12.2683 12.6969C12.5771 12.65 12.7848 12.3922 12.7316 12.1203L11.9612 8.16877L15.2221 5.37033C15.3108 5.29377 15.3694 5.19377 15.3871 5.08439C15.4351 4.81096 15.2185 4.55783 14.9079 4.51721Z"/>
</svg>
