<svg width="22" height="22" viewBox="0 0 22 22" fill="none" xmlns="http://www.w3.org/2000/svg">
	<path d="M19.5105 7.58617L14.0556 6.79339L11.6171 1.84984C11.5505 1.71449 11.4409 1.60492 11.3056 1.53831C10.9661 1.37074 10.5536 1.51038 10.3839 1.84984L7.94544 6.79339L2.49055 7.58617C2.34016 7.60765 2.20266 7.67855 2.09739 7.78597C1.97012 7.91678 1.89999 8.09277 1.9024 8.27526C1.90482 8.45775 1.97959 8.63182 2.11028 8.75921L6.05696 12.6071L5.12454 18.0405C5.10267 18.1669 5.11666 18.2968 5.16491 18.4157C5.21316 18.5345 5.29375 18.6375 5.39754 18.7129C5.50132 18.7882 5.62415 18.833 5.75209 18.8422C5.88004 18.8513 6.00798 18.8244 6.12141 18.7645L11.0005 16.1993L15.8796 18.7645C16.0128 18.8354 16.1675 18.859 16.3158 18.8332C16.6896 18.7688 16.9409 18.4143 16.8765 18.0405L15.9441 12.6071L19.8907 8.75921C19.9982 8.65394 20.0691 8.51644 20.0906 8.36605C20.1486 7.99007 19.8865 7.64202 19.5105 7.58617Z" fill="#FF5400"/>
</svg>
